# xmcd CD database file
#
# Track frame offsets:
#	150
#	20687
#	43500
#
# Disc length: 902 seconds
#
# Revision: 3
# Processed by: cddbd v1.5.2PL0 Copyright (c) Steve Scherf et al.
# Submitted via: CDex 1.70beta2
#
DISCID=1d038403
DTITLE=DeVille Willy - Even While I Sleep
DYEAR=1992
DGENRE=Rock
TTITLE0=Even While I Sleep
TTITLE1=Jump City
TTITLE2=I´m In The Mood
EXTD=YEAR: 1992
EXTT0=
EXTT1=
EXTT2=
PLAYORDER=
